<svg xmlns="http://www.w3.org/2000/svg" width="100%" height="100%" viewBox="0 0 1553 838" fill-rule="evenodd" stroke-linejoin="round" stroke-miterlimit="2">
  <g fill-rule="nonzero">
    <path d="M.01.15l.278-.367c.01-.01.022-.018.036-.018s.028.007.037.018l.242.32.242-.32c.01-.01.022-.018.036-.018s.027.007.036.018l.278.367c.006.008.01.018.01.027 0 .014-.006.028-.017.037-.02.015-.05.01-.064-.01L.88-.114.638.205C.63.216.616.223.602.223S.574.216.566.205l-.243-.32-.242.32C.066.225.038.23.018.214.006.205 0 .19 0 .177 0 .168.003.158.01.15z" fill="url(#A)" transform="matrix(0 648.906 648.906 0 152.197 28.5223)"/>
    <g fill="#00aeef">
      <path d="M0-1.992c-.315-.27-.653-.528-1.013-.77 2.077-2.51 3.67-5.458 4.778-8.85l1.2.308c-.397 1.057-.848 2.14-1.355 3.248h10.7V-6.9H6.318v4.238h6.825v1.122H6.318v4.414h7.408v1.134H6.318V9.62h-1.2V-6.9H3.07C2.228-5.19 1.203-3.554 0-1.992M-6.35.353c-.28-.49-.52-.88-.726-1.167C-4.98-3.83-3.258-7.422-1.915-11.6l1.2.33c-.64 1.8-1.3 3.475-2.014 5.052V9.62h-1.19V-3.753C-4.688-2.285-5.5-.917-6.35.353" transform="matrix(4.16667 0 0 4.16667 638.673 797.901)"/>
      <path d="M0-16.774l.88-.792 3.633 3.137-.948.858c-.96-.96-2.15-2.03-3.565-3.203M-14.827-4.512l-.297-1.21 4.92-.86v-4.512h-4.942v-1.123h4.942v-3.786l-4.018.45c-.08-.5-.194-.884-.34-1.156l8.794-1.144.386 1.122-3.6.54v3.974h6.252L-2.93-18.9h1.244l.132 6.693h7.87v1.123h-7.803l.34 3.115.606 3.38C.92-5.877 2.333-7.46 3.698-9.355l1.034.67c-1.74 2.275-3.375 4.058-4.91 5.35.257.742.536 1.403.837 1.982C1.416.173 2.256.918 3.18.88 3.812.918 4.256.474 4.513-.45c.25-.953.443-1.936.583-2.95.388.2.766.33 1.133.418C6.068-1.786 5.84-.718 5.547.22c-.367 1.284-1.163 1.915-2.39 1.894-1.423.02-2.64-.977-3.654-2.994a14.31 14.31 0 0 1-.671-1.629C-2.562-1.378-4.403-.234-6.692.925-6.964.514-7.23.177-7.485-.087-5.182-1.203-3.21-2.414-1.574-3.72c-.346-1.234-.6-2.602-.793-4.106l-.308-3.27h-6.318v4.282l4.402-.86.045 1.156-4.447.858V-.54c.058 1.593-.683 2.41-2.224 2.455-.44.03-1.3.044-2.575.044a8.17 8.17 0 0 0-.242-1.265c.35.036 1.148.058 2.388.065 1.005.037 1.486-.403 1.442-1.32v-4.877l-4.623.925" transform="matrix(4.16667 0 0 4.16667 916.595 828.215)"/>
      <path d="M0-12.01l-1.046-.78 2.94-3.39 1.08.75L0-12.01m-6.946-3.984l1.035-.584 2.366 3.445-1.122.65-2.28-3.5m-5.998.627l.967-.65 2.566 3.105-1.08.748-2.454-3.203m-1.762 3.698H4.887v4.106H3.643v-2.96h-17.105v2.96h-1.244v-4.106zm9.565 7.76l4.8-2.73h-10.963v-1.155h12.45v1.376l-5.03 3.005v.825h9.52v1.178h-9.52v3.313c.073 1.775-.78 2.656-2.564 2.642l-1.222.022h-1.684l-.232-1.376 2.796.066c.653.007 1.1-.107 1.3-.34.235-.22.348-.657.34-1.3V-1.41h-10.325v-1.178H-5.14v-1.32z" transform="matrix(4.16667 0 0 4.16667 1163.01 818.496)"/>
      <path d="M304.097 65.954h10.556v1.034h-10.556v-1.034zm3.974-6.835l1.1-.386 1.2 2.598-.98.34h6.296v3.082h-1.178V62.73h-10.302v2.025h-1.167v-3.082h6.153l-1.122-2.553m-5.118 11.116h12.91v1.058h-4.348v5.613c-.008.536.08.9.264 1.1.17.198.495.293.98.286h.99c.873.03 1.36-.385 1.464-1.244l.242-2.498 1.134.363-.275 2.41c-.184 1.423-1.03 2.12-2.543 2.1h-1.222c-1.518.06-2.253-.66-2.2-2.157v-5.954h-2.917c.154 4.043-1.67 6.975-5.47 8.794a11.49 11.49 0 0 0-.836-.99c2.033-1.072 3.372-2.124 4.018-3.16.704-1.013 1.078-2.56 1.122-4.645h-3.312v-1.058zm-.86 2.93c0 1.952-.744 2.997-2.234 3.137-.25.022-.495.033-.737.033a7.49 7.49 0 0 1-.418.011h-.672c-.044-.403-.118-.796-.22-1.178.572.03 1.11.044 1.618.044 1.02.03 1.523-.653 1.508-2.047.08-1.695-.646-3.504-2.18-5.427l2.157-6.56h-3.533v18.9h-1.177v-20h5.867v1.178l-2.103 6.285c1.483 1.887 2.19 3.758 2.124 5.614" transform="matrix(4.16667 0 0 4.16667 112.125 504.29)"/>
      <path d="M0 78.946c-17.47 0-28.936-10.155-28.936-25.333h9.61C-19.327 63.768-11.465 70.1 0 70.1c12.994 0 19.327-5.46 19.327-13.976 0-6.333-2.84-10.7-19.546-13.54-16.815-2.95-26.424-8.2-26.424-21.183S-16.27 0-.22 0C16.38 0 26.643 8.954 26.643 23.586h-9.39c0-8.845-6.005-14.742-17.36-14.742-11.684 0-17.143 5.132-17.143 12.23 0 6.552 3.494 9.827 19 12.666 16.598 3.167 26.86 7.862 26.86 22.385 0 14.85-11.683 22.82-28.608 22.82" transform="matrix(4.16667 0 0 4.16667 638.514 4.09625)"/>
      <path d="M0-50.227h-7.207l9.5-14.85h11.355L0-50.227zm10.482 33.52C6.77-13.43.108-12.665-6.552-12.23c-12.23.765-14.96 5.023-14.96 9.72 0 6.114 5.896 8.735 13.103 8.735 9.608 0 18.672-4.15 18.9-14.305v-8.626zm.11 23.804C6.55 12.012 0 14.85-8.735 14.85c-11.576 0-21.95-5.24-21.95-17.36 0-11.575 8.41-16.817 22.93-17.58 13.758-.656 18.235-3.167 18.235-7.644s-4.258-7.862-13.758-7.862c-5.897 0-13.65 1.856-14.632 10.046h-9.61c.656-11.247 9.937-18.563 24.35-18.563 15.068 0 22.712 6.99 22.712 17.47V4.37c0 2.84.765 6.988 1.638 9.172H12.01c-.765-1.638-1.31-3.822-1.42-6.443" transform="matrix(4.16667 0 0 4.16667 919.223 271.158)"/>
      <path d="M0-68.027c-10.592 0-18.89 9.39-18.89 21.074 0 11.465 8.3 20.856 18.89 20.856 10.373 0 19.108-9.39 19.108-20.856 0-11.683-8.735-21.074-19.108-21.074M28.4-21.62C28.4-3.603 16.706 8.626-.546 8.626c-13.32 0-23.694-7.097-26.533-18.563h9.718C-13.648-1.53-4.695-.328-.546-.328c14.413 0 19.654-11.137 19.654-21.293v-5.895C15.068-22.057 8.08-17.58 0-17.58c-16.16 0-28.172-13.213-28.172-29.482S-16.16-76.653 0-76.653c8.3 0 15.505 4.695 19.437 10.373v-8.953H28.4v53.612z" transform="matrix(4.16667 0 0 4.16667 1166.26 406.742)"/>
      <path d="M0-4.15C-3.713-.875-10.374-.1-17.034.327c-12.23.764-14.96 5.023-14.96 9.718 0 6.115 5.895 8.736 13.102 8.736C-9.282 18.78-.22 14.63 0 4.476V-4.15zm.108 23.804c-4.04 4.914-10.6 7.753-19.326 7.753-11.575 0-21.948-5.242-21.948-17.362 0-11.575 8.408-16.816 22.93-17.58C-4.478-8.2 0-10.702 0-15.178s-4.26-7.863-13.76-7.863c-5.896 0-13.648 1.857-14.632 10.046H-38c.655-11.247 9.937-18.562 24.35-18.562 15.068 0 22.712 6.988 22.712 17.47v31.01c0 2.84.764 6.988 1.637 9.172H1.528c-.764-1.638-1.3-3.82-1.42-6.442" transform="matrix(4.16667 0 0 4.16667 1502.02 218.844)"/>
      <path d="M0-38.368v4.478h-22.724v11.6h20.512v4.478h-20.512v13.27H0V0h-27.423v-38.368H0z" transform="matrix(4.16667 0 0 4.16667 632.211 639.54)"/>
      <path d="M0-9.233c-5.364 0-9.565 4.755-9.565 10.67 0 5.806 4.2 10.56 9.565 10.56 5.25 0 9.674-4.753 9.674-10.56C9.674-4.478 5.25-9.233 0-9.233M14.374 15.6H9.84V11c-2 2.93-5.64 5.308-9.84 5.308-8.184 0-14.265-6.69-14.265-14.928S-8.184-13.6 0-13.6c4.09 0 7.63 2.266 9.674 5.03v-16.973h4.7V15.6z" transform="matrix(4.16667 0 0 4.16667 707.301 574.581)"/>
      <path d="M0 27.81h-4.533v-3.096c-1.935 2.322-4.8 3.76-8.292 3.76-6.967 0-10.947-4.975-10.947-11.996V-.663h4.643v17.36c0 4.532 2.488 7.517 7.023 7.517 4.2 0 7.408-3.15 7.408-7.407V-.663H0V27.81z" transform="matrix(4.16667 0 0 4.16667 895.949 523.67)"/>
      <path d="M0 29.854c-7.85 0-14.264-6.634-14.264-14.872S-7.85 0 0 0c6.358 0 11.333 3.76 13.27 9.51H8.237C6.635 6.414 3.704 4.313 0 4.313c-5.252 0-9.564 4.8-9.564 10.67S-5.252 25.542 0 25.542c3.76 0 6.69-2.1 8.237-5.196h5.032c-1.88 5.75-6.91 9.508-13.27 9.508" transform="matrix(4.16667 0 0 4.16667 980.25 517.911)"/>
      <path d="M0-2.102C-1.88-.444-5.252-.056-8.624.165c-6.192.386-7.574 2.544-7.574 4.92 0 3.097 2.985 4.423 6.634 4.423C-4.7 9.508-.11 7.408 0 2.266v-4.368zM.055 9.95C-2 12.438-5.308 13.876-9.73 13.876c-5.86 0-11.113-2.654-11.113-8.79 0-5.86 4.258-8.513 11.61-8.9C-2.267-4.147 0-5.418 0-7.685s-2.156-3.98-6.966-3.98c-2.985 0-6.9.94-7.408 5.085h-4.865c.33-5.694 5.03-9.398 12.328-9.398 7.63 0 11.5 3.538 11.5 8.846v15.7c0 1.437.388 3.538.83 4.643H.774c-.386-.83-.664-1.934-.72-3.26" transform="matrix(4.16667 0 0 4.16667 1139.65 584.488)"/>
      <path d="M0 33.78c-6.635.774-11.224-3.15-11.224-10.394v-13.6h-3.87v-4.48h3.87V-.774h4.644v6.082h6.47v4.48h-6.47v13.6c0 5.032 3.097 6.303 6.58 6.082v4.312z" transform="matrix(4.16667 0 0 4.16667 1241.92 498.79)"/>
      <path d="M281.21 144.728h-4.7v-28.472h4.7v28.472zm0-32.784h-4.7v-5.584h4.7v5.584z" transform="matrix(4.16667 0 0 4.16667 112.125 36.5067)"/>
      <path d="M0 .22c0-5.915-4.312-10.725-9.62-10.725-5.253 0-9.565 4.8-9.565 10.725 0 5.806 4.312 10.505 9.565 10.505C-4.312 10.726 0 6.027 0 .22m4.7 0c0 8.183-6.19 14.816-14.318 14.816-8.072 0-14.32-6.633-14.32-14.816 0-8.292 6.247-15.037 14.32-15.037C-1.492-14.816 4.7-8.07 4.7.22" transform="matrix(4.16667 0 0 4.16667 1408.68 579.647)"/>
      <path d="M0 29.2h-4.645V11.885c0-4.367-2.43-7.573-6.965-7.573-4.313 0-7.464 3.206-7.464 7.463V29.2h-4.7V.718h4.533v3.096C-17.305 1.437-14.375 0-10.947 0-3.98 0 0 4.975 0 12.05V29.2z" transform="matrix(4.16667 0 0 4.16667 1552.41 517.915)"/>
    </g>
  </g>
  <defs>
    <linearGradient id="A" x1="0" y1="-.006" x2="1" y2="-.006" gradientUnits="userSpaceOnUse">
      <stop offset="0" stop-color="#1658a7"/>
      <stop offset="1" stop-color="#32bfea"/>
    </linearGradient>
  </defs>
</svg>
